User Type,Username,Date,Text
,Koronag,2011-10-14T20:58Z,http://www.imdb.com/title/tt1772230/
,simon200,2011-10-14T21:17Z,"THIS IS NOT ENGLISH!!!!!!
No subs with it either 
Cheers for the effort"
[V],extremezone,2011-10-14T21:46Z,"rlslog or any other release site says it's english+chinese,find out by yourself-i didn't checked just downloaded to seedbox"
,canadianlonewolf,2011-10-14T23:44Z,Aw... I was hoping it was about the Colt 1911.
,SamHefron,2011-10-14T23:52Z,"He did (find out by (him)self)), and now he's let everyone else (who's not proficient in the Chinese tongue) know not to waste their time."
,xniggler,2011-10-15T01:19Z,word up jackie!
,frienlyfire78mm,2011-10-15T05:55Z,FYI- BS Player Pro automatically finds subtitles 
,Matrix987,2011-10-15T06:28Z,Excellent copy! thanks extremezone btw any good seedbox sites to recommend?
,touchwoodblues,2011-10-15T09:57Z,"Not ENGLISH ~ SO Y advertise that it is (as above), Extemezone is usually really good, but I don't speak or read CHINESE ..."
,soyuz16,2011-10-15T12:36Z,are there any eng subs for this? if so what sites? :) tnx extremezone
,misterw,2011-10-15T12:51Z,There are no English subs for this.Pity as it looks like a good movie.
,yerisan710,2011-10-15T21:30Z,"celebrando los 100aĂąos de revolucion china...!!!

    extremezone............!!!!!!!!thanks"
,FXQC,2011-10-16T00:30Z,"NO SUBS NO DUAL AUDIO AND FORMAT SETTINGS QPEL IS NOT COMPATIBLE WITH MOST DVD OR BLUERAY STANDALONE PLAYER FRON USB PORT

Complete name                    : E:\1Works\1Vuze\The.1911.Revolution.2011.DVDRip.XviD.AC3-playXD.avi
Format                           : AVI
Format/Info                      : Audio Video Interleave
File size                        : 1.37 GiB
Duration                         : 1h 56mn
Overall bit rate                 : 1 675 Kbps
Writing application              : VirtualDubMod 1.5.10.2 (build 2540/release)
Writing library                  : VirtualDubMod build 2540/release

Video
ID                               : 0
Format                           : MPEG-4 Visual
Format profile                   : Advanced Simple@L5
Format settings, BVOP            : 3
Format settings, QPel            : Yes
Format settings, GMC             : 3 warppoints
Format settings, Matrix          : Default (MPEG)
Codec ID                         : XVID
Codec ID/Hint                    : XviD
Duration                         : 1h 56mn
Bit rate                         : 1 216 Kbps
Width                            : 640 pixels
Height                           : 272 pixels
Display aspect ratio             : 2.35:1
Frame rate                       : 29.970 fps
Color space                      : YUV
Chroma subsampling               : 4:2:0
Bit depth                        : 8 bits
Scan type                        : Progressive
Compression mode                 : Lossy
Bits/(Pixel*Frame)               : 0.233
Stream size                      : 1 017 MiB (73%)
Writing library                  : XviD 1.2.0.dev47 (UTC 2006-11-01)

Audio
ID                               : 1
Format                           : AC-3
Format/Info                      : Audio Coding 3
Mode extension                   : CM (complete main)
Codec ID                         : 2000
Duration                         : 1h 56mn
Bit rate mode                    : Constant
Bit rate                         : 384 Kbps
Channel(s)                       : 2 channels
Channel positions                : Front: L R
Sampling rate                    : 48.0 KHz
Bit depth                        : 16 bits
Compression mode                 : Lossy
Stream size                      : 321 MiB (23%)
Alignment                        : Split accross interleaves"
,minezzbigger,2011-10-16T10:05Z,Ewwww Chinese XD .. 
,bragazar1710,2011-10-16T13:42Z,thanks.
,tommmm,2011-10-16T15:47Z,NOT IN ENGLISH !!!!!!
,scottsasse,2011-10-16T22:25Z,"@FXQC, Good point!! Not compatible with WD-TV either. @extremezone, Please use only USB friendly formats. Please!!  ............................................and damn you Chinese people for ruining what could have been a good movie:)"
,Nik_Dut,2011-10-17T10:53Z,"@scottsasse: I didn't know that being a bigot can really ruin your already pea-sized brain. How can chinese people ruin your so-called good movie if in fact this is china production movie ? Next, weeping about japs and pearl harbor ?"
,mchelski,2011-10-17T16:41Z,"I agree with Nik, the movie is in chinese and that does not make it better or worse, I really want a english/deutsch/portuguĂŞs subtitle, but that does not change the movie quality"
,themancminsh,2011-10-17T22:36Z,I didn't understand a word - but got a massive urge for egg  fried rice
,Sirius22,2011-10-18T23:08Z,Oh no! Not my City Shrimp! Noooo my City Pork!
,zjq2007333,2011-10-19T08:18Z,"love it, THanks!"
,zjq2007333,2011-10-19T08:20Z,"@extremezone, very much appreciate it if u upload more chinese movies"
,pirateRoar,2011-10-19T18:59Z,looks like an awesome muvie to bad no eng subs though like being in a great car but no keys to drive it Come on my good man make an effort We're obviously all waiting
,bannoura1,2011-10-20T01:09Z,"no subs for this movie anywhere, I googled, subscene.com, yahoo ....etc ..... nth like noone made subs for it yet "
,i_steal_media_hohoho,2011-10-20T21:53Z,"As someone already pointed out 'BS Player Pro' automatically finds the subs!

Here is the link for it: http://thepiratebay.org/torrent/6022419/BS.Player_Pro_v2.57___Serials_[ChattChitto_RG]"
,i_steal_media_hohoho,2011-10-21T01:34Z,Take back last comment - BS player could not find any subs. Annoying!
,jinny1922,2011-10-21T05:52Z,"its ok, i understand chinese :D"
,westthen,2011-10-23T06:05Z,need subtitle...any links?
,jazzyjdxbox,2011-10-24T02:49Z,"DON T BOTHER SPOKEN LANGUAGE CHINESE
ASIAN SUBS"
,amyrkur,2011-10-24T08:13Z,"hi,
thanks so much for this upload but does anyone know where i can find eng subtitles? i have had quite a bit of a search but came up with nothing unfortunately. thanks in advance! "
,morotjosmedhallonslyt,2011-10-24T20:13Z,http://www.imdb.com/title/tt1772230/ 
,roni_wva,2011-10-24T20:16Z,any idea for subtitles?
,adamfoff36,2011-10-24T21:10Z,"Thanks, but we need subs"
,swen4os,2011-10-27T22:47Z,"damn, bann this movie, how many people got f*cked and downloaded it and afterwards saw that there is no subtitles :("
,abel86,2011-11-04T06:32Z,"Very wonderful quality but the Language,eish!! Awesome movie though!"
,abel86,2011-11-04T06:33Z,thx nice upload!!
,cindy25,2011-11-17T02:48Z,"found subs, tried to link but database error"
,poeboy,2011-11-21T08:36Z,"For english srt :
http://www.opensubtitles.org/en/subtitles/4413002/xinhai-geming-en"
,haythambahig,2011-11-21T12:41Z,"database error for the subs. 
how come it is saying English for spoken language for the file details ????"
,rollacansada,2011-11-22T01:53Z,"Subtitles in English are available at opensubtitles.org  BUT, they are in ATROCIOUS ""pidgin"" English with MANY Typos."
,foreverguitarman,2012-01-13T10:37Z,"Here are the subs for: The.1911.Revolution.2011.DVDRip.XviD.AC3-playXD...
http://www.opensubtitles.org/en/subtitles/4413002/xinhai-geming-en"
,foreverguitarman,2012-01-13T10:38Z,"Here are the english subs:
http://www.opensubtitles.org/en/subtitles/4413002/xinhai-geming-en"
,dark420elf,2012-04-15T02:54Z,"A/V: 7.5

Great movie. Cheers m8."
